<?xml version="1.0" encoding="UTF-8" standalone="no" ?>
<!DOCTYPE svg PUBLIC "-//W3C//DTD SVG 1.1//EN" "http://www.w3.org/Graphics/SVG/1.1/DTD/svg11.dtd">
<svg xmlns="http://www.w3.org/2000/svg" xmlns:xlink="http://www.w3.org/1999/xlink" version="1.1" width="1080" height="1080" viewBox="0 0 1080 1080" xml:space="preserve">
<desc>Created with Fabric.js 5.2.4</desc>
<defs>
</defs>
<g transform="matrix(1 0 0 1 540 540)" id="b2aab544-bfb5-4d48-bcb0-6c45052d5f54"  >
<rect style="stroke: none; stroke-width: 1; stroke-dasharray: none; stroke-linecap: butt; stroke-dashoffset: 0; stroke-linejoin: miter; stroke-miterlimit: 4; fill: rgb(255,255,255); fill-rule: nonzero; opacity: 1; visibility: hidden;" vector-effect="non-scaling-stroke"  x="-540" y="-540" rx="0" ry="0" width="1080" height="1080" />
</g>
<g transform="matrix(1 0 0 1 540 540)" id="89ca6f79-afa0-458e-b747-73c683b7c4c0"  >
</g>
<g transform="matrix(1 0 0 1.05 540 694.14)"  >
<g style="" vector-effect="non-scaling-stroke"   >
		<g transform="matrix(1.33 0 0 1.33 6.26 -239.63)"  >
<path style="stroke: none; stroke-width: 1; stroke-dasharray: none; stroke-linecap: butt; stroke-dashoffset: 0; stroke-linejoin: miter; stroke-miterlimit: 4; fill: rgb(0,0,0); fill-rule: nonzero; opacity: 1;" vector-effect="non-scaling-stroke"  transform=" translate(-350.05, -201.25)" d="M 608.56 106.49 L 556.06 71.49 C 554.0482999999999 70.0916 551.5092 69.6541 549.06 70.26339999999999 L 514.06 79.01339999999999 C 511.9583999999999 79.53683999999998 510.12249999999995 80.84929999999999 508.8958999999999 82.68919999999999 L 494.0208999999999 105.00119999999998 L 428.74789999999996 105.00119999999998 C 428.74789999999996 90.82519999999998 419.12289999999996 79.27419999999998 407.04889999999995 78.75119999999998 L 297.58889999999997 61.33719999999998 C 297.15139999999997 61.33719999999998 296.71389999999997 61.25126199999998 296.1905 61.25126199999998 C 284.3785 61.25126199999998 271.16749999999996 72.45026199999998 271.16749999999996 87.50126199999998 L 271.16749999999996 105.00126199999998 L 205.89449999999997 105.00126199999998 L 191.01949999999997 82.68926199999999 C 189.79289999999997 80.85336199999999 187.95699999999997 79.54086199999999 185.85539999999997 79.01346199999999 L 150.85539999999997 70.26346199999999 C 148.49209999999997 69.65018199999999 145.95699999999997 70.08768199999999 143.85539999999997 71.490062 L 91.43739999999997 106.490062 C 88.19909999999997 108.677562 86.80069999999996 112.70096199999999 87.93739999999997 116.376762 C 89.07409999999997 120.05256200000001 92.22649999999997 122.415862 96.51159999999997 122.501762 L 146.6486 121.450962 L 157.58659999999998 127.661862 L 157.58659999999998 152.42386199999999 L 146.6486 158.54886199999999 L 96.51159999999999 157.49806199999998 C 92.39829999999999 157.67384199999998 89.15999999999998 159.94726199999997 88.02329999999999 163.62306199999998 C 86.88659999999999 167.29886199999999 88.28501999999999 171.41216199999997 91.52329999999999 173.50976199999997 L 144.0233 208.50976199999997 C 145.51160000000002 209.47070199999996 147.17170000000002 209.99806199999998 148.8358 209.99806199999998 C 149.53502 209.99806199999998 150.23420000000002 209.99806199999998 150.9374 209.73634199999998 L 185.9374 200.98634199999998 C 188.039 200.46290199999999 189.8749 199.15044199999997 191.1015 197.31054199999997 L 205.9765 174.99854199999996 L 220.41449999999998 174.99854199999996 C 224.00039999999998 185.14654199999995 233.6255 192.49854199999996 245.09049999999996 192.49854199999996 C 259.52849999999995 192.49854199999996 271.34049999999996 204.31054199999997 271.34049999999996 218.74854199999996 L 271.34049999999996 236.24854199999996 L 262.59049999999996 236.24854199999996 C 257.77799999999996 236.24854199999996 253.84049999999996 240.18604199999996 253.84049999999996 244.99854199999996 L 253.84049999999996 332.49854199999993 C 253.84049999999996 337.31104199999993 257.77799999999996 341.24854199999993 262.59049999999996 341.24854199999993 L 437.59049999999996 341.24854199999993 C 442.40299999999996 341.24854199999993 446.34049999999996 337.31104199999993 446.34049999999996 332.49854199999993 L 446.34049999999996 244.99854199999993 C 446.34049999999996 240.18604199999993 442.40299999999996 236.24854199999993 437.59049999999996 236.24854199999993 L 428.84049999999996 236.24854199999993 L 428.84049999999996 218.74854199999993 L 411.34049999999996 218.74854199999993 L 411.34049999999996 236.24854199999993 L 288.84049999999996 236.24854199999993 L 288.84049999999996 218.74854199999993 C 288.84049999999996 194.60054199999993 269.2385 174.99854199999993 245.09049999999996 174.99854199999993 C 240.27799999999996 174.99854199999993 236.34049999999996 171.06104199999993 236.34049999999996 166.24854199999993 C 236.34049999999996 161.43604199999993 240.27799999999996 157.49854199999993 245.09049999999996 157.49854199999993 L 280.09049999999996 157.49854199999993 C 284.90299999999996 157.49854199999993 288.84049999999996 153.56104199999993 288.84049999999996 148.74854199999993 L 288.84049999999996 87.49854199999993 C 288.84049999999996 82.77194199999992 293.30139999999994 79.18604199999993 295.92639999999994 78.74854199999993 L 306.34039999999993 80.41264199999993 L 306.34039999999993 122.49864199999993 L 323.84039999999993 122.49864199999993 L 323.84039999999993 83.20964199999993 L 341.34039999999993 86.01044199999993 L 341.34039999999993 139.99844199999993 L 358.84039999999993 139.99844199999993 L 358.84039999999993 88.81044199999992 L 376.34039999999993 91.61124199999992 L 376.34039999999993 157.49824199999992 L 393.84039999999993 157.49824199999992 L 393.84039999999993 94.41224199999992 C 393.84039999999993 94.41224199999992 405.91439999999994 96.24814199999992 406.35239999999993 96.24814199999992 C 408.36409999999995 96.24814199999992 411.3406999999999 99.74814199999992 411.3406999999999 104.99814199999992 L 411.3406999999999 201.24814199999992 L 428.8406999999999 201.24814199999992 L 428.8406999999999 174.99814199999992 L 494.1136999999999 174.99814199999992 L 508.9886999999999 197.31014199999993 C 510.2152999999999 199.14604199999994 512.0511999999999 200.45854199999994 514.1527999999998 200.98594199999994 L 549.1527999999998 209.73594199999994 C 549.8520199999998 209.91172199999994 550.5511999999999 209.99766199999993 551.2543999999998 209.99766199999993 C 553.0043999999998 209.99766199999993 554.6684999999998 209.47422199999994 556.0668999999998 208.50936199999992 L 608.5668999999998 173.50936199999992 C 611.8051999999998 171.32186199999992 613.2035999999998 167.29846199999992 612.0668999999998 163.62266199999993 C 610.9301999999998 159.94686199999992 607.5160999999998 157.49766199999993 603.7543999999998 157.49766199999993 L 603.5786199999998 157.49766199999993 L 553.4416199999998 158.54846199999994 L 542.5036199999998 152.42346199999994 L 542.5036199999998 127.66146199999994 L 553.4416199999998 121.45056199999995 L 603.5786199999998 122.50136199999994 C 607.6020199999998 122.50136199999994 610.9302199999997 120.05216199999994 612.1528199999998 116.37636199999994 C 613.2895199999998 112.70056199999995 611.8910999999998 108.67716199999994 608.6528199999998 106.48966199999994 z M 428.74999999999994 253.75 L 428.74999999999994 323.75 L 271.24999999999994 323.75 L 271.24999999999994 253.75 z M 271.24999999999994 140 L 244.99999999999994 140 C 233.62499999999994 140 223.99999999999994 147.3516 220.32399999999996 157.5 L 201.24999999999994 157.5 C 198.36329999999995 157.5 195.56249999999994 158.9883 193.98829999999995 161.4375 L 178.32429999999997 184.8865 L 150.41029999999995 191.8865 L 126.08629999999995 175.69850000000002 L 148.57429999999994 176.13600000000002 C 150.14849999999993 176.13600000000002 151.63679999999994 175.78444000000002 153.03519999999995 174.99930000000003 L 170.53519999999995 165.19850000000002 C 173.33599999999996 163.62430000000003 174.99609999999996 160.73760000000001 174.99609999999996 157.58520000000001 L 174.99609999999996 122.58520000000001 C 174.99609999999996 119.43680000000002 173.33199999999997 116.54610000000001 170.53519999999995 114.97190000000002 L 153.03519999999995 105.08520000000001 C 151.63679999999994 104.29614000000001 150.05859999999996 103.94850000000001 148.57429999999994 103.94850000000001 L 126.17629999999994 104.47194 L 150.41429999999994 88.28394 L 178.41429999999994 95.28394 L 194.07829999999993 118.73294 C 195.74239999999992 121.18214 198.45329999999993 122.67044 201.33999999999992 122.67044 L 271.3399999999999 122.67044 L 271.3399999999999 140.17043999999999 z M 551.43 103.863 C 550.0315999999999 103.863 548.2815999999999 104.21456 546.9690999999999 104.9997 L 529.4690999999999 114.88640000000001 C 526.7581999999999 116.46060000000001 525.0081999999999 119.3473 525.0081999999999 122.4997 L 525.0081999999999 157.49970000000002 C 525.0081999999999 160.64810000000003 526.7581999999999 163.62470000000002 529.4690999999999 165.11300000000003 L 546.9690999999999 174.91380000000004 C 548.3675 175.70286000000004 549.9456999999999 176.05050000000003 551.43 176.05050000000003 L 573.9179999999999 175.61300000000003 L 549.5939999999999 191.80100000000002 L 521.68 184.80100000000002 L 506.01599999999996 161.352 C 504.35189999999994 158.9028 501.64099999999996 157.4145 498.75429999999994 157.4145 L 428.75429999999994 157.4145 L 428.75429999999994 122.4145 L 498.75429999999994 122.4145 C 501.64099999999996 122.4145 504.44179999999994 120.92620000000001 506.01599999999996 118.477 L 521.68 95.028 L 549.68 88.028 L 573.9179999999999 104.21600000000001 L 551.5199999999999 103.69256000000001 z" stroke-linecap="round" />
</g>
		<g transform="matrix(1.33 0 0 1.33 6.2 87.04)"  >
<path style="stroke: none; stroke-width: 1; stroke-dasharray: none; stroke-linecap: butt; stroke-dashoffset: 0; stroke-linejoin: miter; stroke-miterlimit: 4; fill: rgb(0,0,0); fill-rule: nonzero; opacity: 1;" vector-effect="non-scaling-stroke"  transform=" translate(-350, -446.25)" d="M 586.25 393.75 L 113.75 393.75 C 99.312 393.75 87.5 405.562 87.5 420 L 87.5 472.5 C 87.5 486.938 99.312 498.75 113.75 498.75 L 586.25 498.75 C 600.688 498.75 612.5 486.938 612.5 472.5 L 612.5 420 C 612.5 405.562 600.688 393.75 586.25 393.75 z M 595 472.5 C 595 477.3125 591.0625 481.25 586.25 481.25 L 113.75 481.25 C 108.9375 481.25 105 477.3125 105 472.5 L 105 420 C 105 415.1875 108.9375 411.25 113.75 411.25 L 586.25 411.25 C 591.0625 411.25 595 415.1875 595 420 z" stroke-linecap="round" />
</g>
		<g transform="matrix(1.33 0 0 1.33 -87.13 87.04)"  >
<path style="stroke: none; stroke-width: 1; stroke-dasharray: none; stroke-linecap: butt; stroke-dashoffset: 0; stroke-linejoin: miter; stroke-miterlimit: 4; fill: rgb(0,0,0); fill-rule: nonzero; opacity: 1;" vector-effect="non-scaling-stroke"  transform=" translate(-280, -446.25)" d="M 140 420 C 125.562 420 113.75 431.812 113.75 446.25 C 113.75 460.688 125.562 472.5 140 472.5 C 151.375 472.5 161 465.1484 164.676 455 L 446.246 455 L 446.246 437.5 L 164.676 437.5 C 161.09009999999998 427.352 151.46499999999997 420 140 420 z M 140 455 C 135.1875 455 131.25 451.0625 131.25 446.25 C 131.25 441.4375 135.1875 437.5 140 437.5 C 144.8125 437.5 148.75 441.4375 148.75 446.25 C 148.75 451.0625 144.8125 455 140 455 z" stroke-linecap="round" />
</g>
		<g transform="matrix(1.33 0 0 1.33 169.54 87.04)"  >
<path style="stroke: none; stroke-width: 1; stroke-dasharray: none; stroke-linecap: butt; stroke-dashoffset: 0; stroke-linejoin: miter; stroke-miterlimit: 4; fill: rgb(0,0,0); fill-rule: nonzero; opacity: 1;" vector-effect="non-scaling-stroke"  transform=" translate(-472.5, -446.25)" d="M 463.75 437.5 L 481.25 437.5 L 481.25 455 L 463.75 455 z" stroke-linecap="round" />
</g>
		<g transform="matrix(1.33 0 0 1.33 216.2 87.04)"  >
<path style="stroke: none; stroke-width: 1; stroke-dasharray: none; stroke-linecap: butt; stroke-dashoffset: 0; stroke-linejoin: miter; stroke-miterlimit: 4; fill: rgb(0,0,0); fill-rule: nonzero; opacity: 1;" vector-effect="non-scaling-stroke"  transform=" translate(-507.5, -446.25)" d="M 498.75 437.5 L 516.25 437.5 L 516.25 455 L 498.75 455 z" stroke-linecap="round" />
</g>
		<g transform="matrix(1.33 0 0 1.33 -346.14 392.48)"  >
<path style="stroke: none; stroke-width: 1; stroke-dasharray: none; stroke-linecap: butt; stroke-dashoffset: 0; stroke-linejoin: miter; stroke-miterlimit: 4; fill: rgb(0,0,0); fill-rule: nonzero; opacity: 1;" vector-effect="non-scaling-stroke"  transform=" translate(-15.74, 15.92)" d="M 29.312 -1.75 C 27.8003 -0.96875 26.2222 -0.3789 24.5776 0.015600000000000058 C 22.9409 0.42185000000000006 21.2378 0.6249800000000001 19.4682 0.6249800000000001 C 14.1557 0.6249800000000001 9.9409 -0.8594199999999999 6.8271999999999995 -3.82812 C 3.7216999999999993 -6.79692 2.1709999999999994 -10.82812 2.1709999999999994 -15.92212 C 2.1709999999999994 -21.01612 3.721799999999999 -25.04712 6.8271999999999995 -28.01612 C 9.9405 -30.984920000000002 14.1553 -32.46922 19.4682 -32.46922 C 21.2377 -32.46922 22.9409 -32.27 24.5776 -31.87547 C 26.2221 -31.47703 27.8003 -30.88328 29.312 -30.09427 L 29.312 -23.50047 C 27.780800000000003 -24.53957 26.2729 -25.30127 24.796400000000002 -25.78167 C 23.315900000000003 -26.269949999999998 21.7573 -26.51605 20.1245 -26.51605 C 17.187 -26.51605 14.878400000000001 -25.57074 13.2026 -23.68795 C 11.5229 -21.81295 10.687000000000001 -19.22315 10.687000000000001 -15.922350000000002 C 10.687000000000001 -12.629350000000002 11.522940000000002 -10.039550000000002 13.2026 -8.156750000000002 C 14.878400000000001 -6.281750000000002 17.187 -5.344250000000002 20.1245 -5.344250000000002 C 21.7573 -5.344250000000002 23.3159 -5.582530000000002 24.796400000000002 -6.063000000000002 C 26.273000000000003 -6.551280000000002 27.780800000000003 -7.316900000000002 29.312 -8.359900000000003 z" stroke-linecap="round" />
</g>
		<g transform="matrix(1.33 0 0 1.33 -307.57 397.37)"  >
<path style="stroke: none; stroke-width: 1; stroke-dasharray: none; stroke-linecap: butt; stroke-dashoffset: 0; stroke-linejoin: miter; stroke-miterlimit: 4; fill: rgb(0,0,0); fill-rule: nonzero; opacity: 1;" vector-effect="non-scaling-stroke"  transform=" translate(-12.56, 12.25)" d="M 21.453 -17.406 C 20.77331 -17.7185 20.101399999999998 -17.945059999999998 19.4374 -18.0935 C 18.78115 -18.24975 18.1171 -18.32788 17.453 -18.32788 C 15.4842 -18.32788 13.968599999999999 -17.69507 12.906099999999999 -16.43728 C 11.851399999999998 -15.175580000000002 11.328 -13.366980000000002 11.328 -11.01538 L 11.328 0.0006199999999996209 L 3.6717999999999993 0.0006199999999996209 L 3.6717999999999993 -23.92138 L 11.328 -23.92138 L 11.328 -19.99948 C 12.304559999999999 -21.56198 13.429599999999999 -22.702579999999998 14.703 -23.42138 C 15.9842 -24.14013 17.5155 -24.49948 19.296799999999998 -24.49948 C 19.546799999999998 -24.49948 19.82024 -24.487761 20.124919999999996 -24.46823 C 20.425699999999996 -24.444792 20.859299999999998 -24.397917999999997 21.421819999999997 -24.32761 z" stroke-linecap="round" />
</g>
		<g transform="matrix(1.33 0 0 1.33 -275.93 397.79)"  >
<path style="stroke: none; stroke-width: 1; stroke-dasharray: none; stroke-linecap: butt; stroke-dashoffset: 0; stroke-linejoin: miter; stroke-miterlimit: 4; fill: rgb(0,0,0); fill-rule: nonzero; opacity: 1;" vector-effect="non-scaling-stroke"  transform=" translate(-14.72, 11.94)" d="M 27.562 -12.031 L 27.562 -9.8435 L 9.671000000000003 -9.8435 C 9.858500000000003 -8.050500000000001 10.503030000000003 -6.706800000000001 11.608500000000003 -5.8123000000000005 C 12.721800000000004 -4.913860000000001 14.280400000000004 -4.468500000000001 16.280400000000004 -4.468500000000001 C 17.882000000000005 -4.468500000000001 19.530400000000004 -4.70288 21.217900000000004 -5.171620000000001 C 22.905400000000004 -5.648180000000001 24.639800000000005 -6.374720000000001 26.421000000000003 -7.343520000000001 L 26.421000000000003 -1.4529200000000007 C 24.616300000000003 -0.7654200000000007 22.811600000000002 -0.2498200000000006 20.999100000000002 0.09397999999999929 C 19.186600000000002 0.44553999999999927 17.378 0.6252299999999993 15.577200000000001 0.6252299999999993 C 11.241300000000003 0.6252299999999993 7.874100000000001 -0.4724700000000006 5.468200000000001 -2.6716700000000007 C 3.069800000000001 -4.8786700000000005 1.8744000000000014 -7.968570000000001 1.8744000000000014 -11.93727 C 1.8744000000000014 -15.84347 3.050200000000001 -18.90997 5.4056000000000015 -21.140369999999997 C 7.768900000000002 -23.378669999999996 11.015 -24.499769999999998 15.140000000000002 -24.499769999999998 C 18.897800000000004 -24.499769999999998 21.9095 -23.363069999999997 24.171200000000002 -21.09357 C 26.429000000000002 -18.83187 27.5618 -15.81237 27.5618 -12.03107 z M 19.7026 -14.5622 C 19.7026 -16.0192 19.27291 -17.1911 18.421400000000002 -18.0778 C 17.577650000000002 -18.97233 16.4722 -19.4216 15.108900000000002 -19.4216 C 13.616700000000002 -19.4216 12.409700000000003 -19.00363 11.483900000000002 -18.1716 C 10.565930000000002 -17.33566 9.991700000000002 -16.1325 9.765100000000002 -14.5622 z" stroke-linecap="round" />
</g>
		<g transform="matrix(1.33 0 0 1.33 -237.35 397.79)"  >
<path style="stroke: none; stroke-width: 1; stroke-dasharray: none; stroke-linecap: butt; stroke-dashoffset: 0; stroke-linejoin: miter; stroke-miterlimit: 4; fill: rgb(0,0,0); fill-rule: nonzero; opacity: 1;" vector-effect="non-scaling-stroke"  transform=" translate(-13.98, 11.94)" d="M 14.391 -10.766 C 12.7972 -10.766 11.597999999999999 -10.49256 10.7972 -9.9535 C 9.99251 -9.41053 9.594100000000001 -8.6137 9.594100000000001 -7.5629 C 9.594100000000001 -6.59415 9.91441 -5.8324 10.562850000000001 -5.2817 C 11.20738 -4.73873 12.109750000000002 -4.4692 13.26595 -4.4692 C 14.70345 -4.4692 15.91045 -4.98482 16.89095 -6.0161 C 17.87923 -7.0473 18.37535 -8.3364 18.37535 -9.8911 L 18.37535 -10.7661 z M 26.079 -13.656600000000001 L 26.079 -0.000600000000000378 L 18.3759 -0.000600000000000378 L 18.3759 -3.5475000000000003 C 17.344700000000003 -2.0983 16.1884 -1.0397000000000003 14.907100000000002 -0.3756000000000004 C 13.625800000000002 0.28849999999999953 12.067300000000001 0.6243999999999996 10.235200000000003 0.6243999999999996 C 7.754700000000002 0.6243999999999996 5.739100000000002 -0.09826000000000035 4.188300000000003 -1.5475000000000003 C 2.6453000000000024 -2.9928000000000003 1.8758000000000026 -4.867800000000001 1.8758000000000026 -7.1725 C 1.8758000000000026 -9.985 2.8367400000000025 -12.0397 4.766400000000003 -13.3444 C 6.703900000000003 -14.6569 9.735200000000003 -15.3132 13.860200000000003 -15.3132 L 18.3758 -15.3132 L 18.3758 -15.92258 C 18.3758 -17.12958 17.89533 -18.016379999999998 16.9383 -18.578780000000002 C 15.989080000000001 -19.141280000000002 14.500800000000002 -19.422530000000002 12.469500000000002 -19.422530000000002 C 10.832800000000002 -19.422530000000002 9.313300000000002 -19.25456 7.907000000000002 -18.922530000000002 C 6.500800000000002 -18.59831 5.188200000000002 -18.110030000000002 3.969500000000002 -17.45373 L 3.969500000000002 -23.28183 C 5.614000000000002 -23.68808 7.258600000000001 -23.98886 8.907000000000002 -24.18808 C 10.563200000000002 -24.39511 12.211700000000002 -24.50058 13.860100000000003 -24.50058 C 18.180400000000002 -24.50058 21.297600000000003 -23.64511 23.203900000000004 -21.93808 C 25.118000000000006 -20.238879999999998 26.078900000000004 -17.47718 26.078900000000004 -13.65688 z" stroke-linecap="round" />
</g>
		<g transform="matrix(1.33 0 0 1.33 -202.97 393.23)"  >
<path style="stroke: none; stroke-width: 1; stroke-dasharray: none; stroke-linecap: butt; stroke-dashoffset: 0; stroke-linejoin: miter; stroke-miterlimit: 4; fill: rgb(0,0,0); fill-rule: nonzero; opacity: 1;" vector-effect="non-scaling-stroke"  transform=" translate(-10.24, 15.36)" d="M 12.031 -30.719 L 12.031 -23.9221 L 19.906 -23.9221 L 19.906 -18.4533 L 12.030999999999999 -18.4533 L 12.030999999999999 -8.312299999999999 C 12.030999999999999 -7.195099999999998 12.249749999999999 -6.4411999999999985 12.687249999999999 -6.046699999999999 C 13.124749999999999 -5.659979999999998 13.999749999999999 -5.468579999999998 15.312249999999999 -5.468579999999998 L 19.24975 -5.468579999999998 L 19.24975 0.00022000000000144126 L 12.687249999999999 0.00022000000000144126 C 9.663849999999998 0.00022000000000144126 7.5231499999999984 -0.6286899999999985 6.265349999999999 -1.8903799999999986 C 5.003649999999999 -3.1481799999999986 4.374749999999999 -5.288779999999999 4.374749999999999 -8.312279999999998 L 4.374749999999999 -18.45328 L 0.5778499999999989 -18.45328 L 0.5778499999999989 -23.92208 L 4.374749999999999 -23.92208 L 4.374749999999999 -30.718980000000002 z" stroke-linecap="round" />
</g>
		<g transform="matrix(1.33 0 0 1.33 -169.11 397.79)"  >
<path style="stroke: none; stroke-width: 1; stroke-dasharray: none; stroke-linecap: butt; stroke-dashoffset: 0; stroke-linejoin: miter; stroke-miterlimit: 4; fill: rgb(0,0,0); fill-rule: nonzero; opacity: 1;" vector-effect="non-scaling-stroke"  transform=" translate(-14.72, 11.94)" d="M 27.562 -12.031 L 27.562 -9.8435 L 9.671000000000003 -9.8435 C 9.858500000000003 -8.050500000000001 10.503030000000003 -6.706800000000001 11.608500000000003 -5.8123000000000005 C 12.721800000000004 -4.913860000000001 14.280400000000004 -4.468500000000001 16.280400000000004 -4.468500000000001 C 17.882000000000005 -4.468500000000001 19.530400000000004 -4.70288 21.217900000000004 -5.171620000000001 C 22.905400000000004 -5.648180000000001 24.639800000000005 -6.374720000000001 26.421000000000003 -7.343520000000001 L 26.421000000000003 -1.4529200000000007 C 24.616300000000003 -0.7654200000000007 22.811600000000002 -0.2498200000000006 20.999100000000002 0.09397999999999929 C 19.186600000000002 0.44553999999999927 17.378 0.6252299999999993 15.577200000000001 0.6252299999999993 C 11.241300000000003 0.6252299999999993 7.874100000000001 -0.4724700000000006 5.468200000000001 -2.6716700000000007 C 3.069800000000001 -4.8786700000000005 1.8744000000000014 -7.968570000000001 1.8744000000000014 -11.93727 C 1.8744000000000014 -15.84347 3.050200000000001 -18.90997 5.4056000000000015 -21.140369999999997 C 7.768900000000002 -23.378669999999996 11.015 -24.499769999999998 15.140000000000002 -24.499769999999998 C 18.897800000000004 -24.499769999999998 21.9095 -23.363069999999997 24.171200000000002 -21.09357 C 26.429000000000002 -18.83187 27.5618 -15.81237 27.5618 -12.03107 z M 19.7026 -14.5622 C 19.7026 -16.0192 19.27291 -17.1911 18.421400000000002 -18.0778 C 17.577650000000002 -18.97233 16.4722 -19.4216 15.108900000000002 -19.4216 C 13.616700000000002 -19.4216 12.409700000000003 -19.00363 11.483900000000002 -18.1716 C 10.565930000000002 -17.33566 9.991700000000002 -16.1325 9.765100000000002 -14.5622 z" stroke-linecap="round" />
</g>
		<g transform="matrix(1.33 0 0 1.33 -129.44 391.97)"  >
<path style="stroke: none; stroke-width: 1; stroke-dasharray: none; stroke-linecap: butt; stroke-dashoffset: 0; stroke-linejoin: miter; stroke-miterlimit: 4; fill: rgb(0,0,0); fill-rule: nonzero; opacity: 1;" vector-effect="non-scaling-stroke"  transform=" translate(-14.8, 16.3)" d="M 19.953 -20.422 L 19.953 -33.234 L 27.6405 -33.234 L 27.6405 0 L 19.953 0 L 19.953 -3.4531 C 18.8983 -2.0469 17.7382 -1.0156 16.4686 -0.3593000000000002 C 15.195199999999998 0.2969499999999998 13.726399999999998 0.6250799999999999 12.062399999999998 0.6250799999999999 C 9.113199999999999 0.6250799999999999 6.691299999999998 -0.5468200000000001 4.796799999999998 -2.8905200000000004 C 2.910099999999998 -5.23432 1.9686999999999983 -8.24992 1.9686999999999983 -11.937420000000001 C 1.9686999999999983 -15.624920000000003 2.910109999999998 -18.640520000000002 4.796799999999998 -20.984320000000004 C 6.691299999999998 -23.328120000000006 9.113199999999999 -24.499920000000003 12.062399999999998 -24.499920000000003 C 13.718599999999999 -24.499920000000003 15.179599999999999 -24.163980000000002 16.453 -23.499920000000003 C 17.734199999999998 -22.843670000000003 18.8983 -21.816320000000005 19.953 -20.421820000000004 z M 14.906099999999999 -4.938000000000001 C 16.5506 -4.938000000000001 17.8006 -5.535660000000001 18.6561 -6.7349000000000006 C 19.519379999999998 -7.930200000000001 19.953 -9.6646 19.953 -11.938 C 19.953 -14.2192 19.51941 -15.9575 18.6561 -17.1568 C 17.800629999999998 -18.3521 16.5506 -18.9537 14.906099999999999 -18.9537 C 13.281099999999999 -18.9537 12.034999999999998 -18.352140000000002 11.171699999999998 -17.1568 C 10.316229999999997 -15.957600000000001 9.890499999999998 -14.2193 9.890499999999998 -11.938 C 9.890499999999998 -9.6646 10.316279999999997 -7.930200000000001 11.171699999999998 -6.7349000000000006 C 12.034979999999997 -5.5357 13.281099999999999 -4.938000000000001 14.906099999999999 -4.938000000000001 z" stroke-linecap="round" />
</g>
		<g transform="matrix(1.33 0 0 1.33 -65.09 391.97)"  >
<path style="stroke: none; stroke-width: 1; stroke-dasharray: none; stroke-linecap: butt; stroke-dashoffset: 0; stroke-linejoin: miter; stroke-miterlimit: 4; fill: rgb(0,0,0); fill-rule: nonzero; opacity: 1;" vector-effect="non-scaling-stroke"  transform=" translate(-16.52, 16.3)" d="M 16.406 -4.9375 C 18.0388 -4.9375 19.2888 -5.53516 20.156 -6.7344 C 21.01928 -7.9297 21.4529 -9.6641 21.4529 -11.9375 C 21.4529 -14.2187 21.01931 -15.957 20.156 -17.1563 C 19.288809999999998 -18.3516 18.0388 -18.953200000000002 16.406 -18.953200000000002 C 14.7693 -18.953200000000002 13.5154 -18.347730000000002 12.6404 -17.140700000000002 C 11.7654 -15.941500000000003 11.3279 -14.207100000000002 11.3279 -11.937600000000003 C 11.3279 -9.675900000000004 11.7654 -7.941500000000003 12.6404 -6.734500000000003 C 13.5154 -5.535300000000003 14.7693 -4.937600000000003 16.406 -4.937600000000003 z M 11.3279 -20.4215 C 12.3787 -21.816000000000003 13.5467 -22.843400000000003 14.8279 -23.4996 C 16.109099999999998 -24.16366 17.5818 -24.4996 19.2498 -24.4996 C 22.1951 -24.4996 24.617 -23.3277 26.5154 -20.984 C 28.4099 -18.6402 29.3592 -15.624600000000001 29.3592 -11.937100000000001 C 29.3592 -8.249600000000001 28.40998 -5.234000000000001 26.5154 -2.8902 C 24.617 -0.5464000000000002 22.1951 0.6254 19.2498 0.6254 C 17.5818 0.6254 16.1092 0.28945999999999994 14.8279 -0.37460000000000004 C 13.546599999999998 -1.0386600000000001 12.3787 -2.066 11.3279 -3.4527 L 11.3279 0.00039999999999995595 L 3.6716999999999995 0.00039999999999995595 L 3.6716999999999995 -33.2336 L 11.3279 -33.2336 z" stroke-linecap="round" />
</g>
		<g transform="matrix(1.33 0 0 1.33 -26.52 404.05)"  >
<path style="stroke: none; stroke-width: 1; stroke-dasharray: none; stroke-linecap: butt; stroke-dashoffset: 0; stroke-linejoin: miter; stroke-miterlimit: 4; fill: rgb(0,0,0); fill-rule: nonzero; opacity: 1;" vector-effect="non-scaling-stroke"  transform=" translate(-14.13, 7.24)" d="M 0.53125 -23.922 L 8.18745 -23.922 L 14.60935 -7.687999999999999 L 20.07815 -23.922 L 27.73435 -23.922 L 17.67235 2.2659999999999982 C 16.66065 4.930099999999998 15.477050000000002 6.789399999999998 14.12545 7.844099999999998 C 12.78165 8.906599999999997 11.00435 9.437899999999999 8.797350000000002 9.437899999999999 L 4.375450000000002 9.437899999999999 L 4.375450000000002 4.422299999999999 L 6.766050000000002 4.422299999999999 C 8.066850000000002 4.422299999999999 9.008250000000002 4.211359999999999 9.594150000000003 3.797299999999999 C 10.187900000000003 3.391049999999999 10.648850000000003 2.648899999999999 10.984750000000002 1.5784999999999991 L 11.187870000000002 0.9222499999999991 z" stroke-linecap="round" />
</g>
		<g transform="matrix(1.33 0 0 1.33 33.94 392.48)"  >
<path style="stroke: none; stroke-width: 1; stroke-dasharray: none; stroke-linecap: butt; stroke-dashoffset: 0; stroke-linejoin: miter; stroke-miterlimit: 4; fill: rgb(0,0,0); fill-rule: nonzero; opacity: 1;" vector-effect="non-scaling-stroke"  transform=" translate(-15.73, 15.92)" d="M 26.219 -30.891 L 26.219 -24.141 C 24.4573 -24.92225 22.7424 -25.5082 21.078400000000002 -25.906599999999997 C 19.410400000000003 -26.312849999999997 17.8362 -26.51598 16.3596 -26.51598 C 14.3987 -26.51598 12.945500000000001 -26.242539999999998 12.0002 -25.70348 C 11.0627 -25.16051 10.594 -24.316779999999998 10.594 -23.17228 C 10.594 -22.31681 10.910409999999999 -21.648880000000002 11.54712 -21.17228 C 12.179929999999999 -20.70353 13.33232 -20.29728 15.000219999999999 -19.95348 L 18.50022 -19.25036 C 22.03932 -18.53161 24.56272 -17.44566 26.06272 -16.00036 C 27.56272 -14.551160000000001 28.31272 -12.488660000000001 28.31272 -9.81286 C 28.31272 -6.28946 27.265819999999998 -3.6722600000000005 25.17212 -1.9534600000000006 C 23.08622 -0.23466000000000053 19.89872 0.6246399999999994 15.60962 0.6246399999999994 C 13.586219999999999 0.6246399999999994 11.55492 0.42932999999999943 9.51582 0.04651999999999945 C 7.48462 -0.33629000000000053 5.45332 -0.9105100000000006 3.42202 -1.6722800000000007 L 3.42202 -8.60978 C 5.45322 -7.52388 7.41422 -6.70748 9.312619999999999 -6.156680000000001 C 11.21882 -5.613710000000001 13.05482 -5.344180000000001 14.828219999999998 -5.344180000000001 C 16.61732 -5.344180000000001 17.988419999999998 -5.64106 18.93762 -6.234800000000001 C 19.89465 -6.836360000000001 20.37512 -7.691800000000001 20.37512 -8.7973 C 20.37512 -9.7973 20.0509 -10.5668 19.40637 -11.1098 C 18.757929999999998 -11.648859999999999 17.46887 -12.1332 15.531369999999999 -12.562899999999999 L 12.343869999999999 -13.26602 C 9.156369999999999 -13.95352 6.820469999999999 -15.03942 5.343869999999999 -16.53162 C 3.875069999999999 -18.03162 3.140769999999999 -20.04722 3.140769999999999 -22.57852 C 3.140769999999999 -25.75432 4.164169999999999 -28.19572 6.218869999999999 -29.90662 C 8.26967 -31.61362 11.218869999999999 -32.469120000000004 15.062669999999999 -32.469120000000004 C 16.812669999999997 -32.469120000000004 18.61347 -32.336310000000005 20.46887 -32.078500000000005 C 22.32047 -31.816780000000005 24.23837 -31.422250000000005 26.21887 -30.891000000000005 z" stroke-linecap="round" />
</g>
		<g transform="matrix(1.33 0 0 1.33 68.65 393.23)"  >
<path style="stroke: none; stroke-width: 1; stroke-dasharray: none; stroke-linecap: butt; stroke-dashoffset: 0; stroke-linejoin: miter; stroke-miterlimit: 4; fill: rgb(0,0,0); fill-rule: nonzero; opacity: 1;" vector-effect="non-scaling-stroke"  transform=" translate(-10.24, 15.36)" d="M 12.031 -30.719 L 12.031 -23.9221 L 19.906 -23.9221 L 19.906 -18.4533 L 12.030999999999999 -18.4533 L 12.030999999999999 -8.312299999999999 C 12.030999999999999 -7.195099999999998 12.249749999999999 -6.4411999999999985 12.687249999999999 -6.046699999999999 C 13.124749999999999 -5.659979999999998 13.999749999999999 -5.468579999999998 15.312249999999999 -5.468579999999998 L 19.24975 -5.468579999999998 L 19.24975 0.00022000000000144126 L 12.687249999999999 0.00022000000000144126 C 9.663849999999998 0.00022000000000144126 7.5231499999999984 -0.6286899999999985 6.265349999999999 -1.8903799999999986 C 5.003649999999999 -3.1481799999999986 4.374749999999999 -5.288779999999999 4.374749999999999 -8.312279999999998 L 4.374749999999999 -18.45328 L 0.5778499999999989 -18.45328 L 0.5778499999999989 -23.92208 L 4.374749999999999 -23.92208 L 4.374749999999999 -30.718980000000002 z" stroke-linecap="round" />
</g>
		<g transform="matrix(1.33 0 0 1.33 103.47 398.18)"  >
<path style="stroke: none; stroke-width: 1; stroke-dasharray: none; stroke-linecap: butt; stroke-dashoffset: 0; stroke-linejoin: miter; stroke-miterlimit: 4; fill: rgb(0,0,0); fill-rule: nonzero; opacity: 1;" vector-effect="non-scaling-stroke"  transform=" translate(-15.45, 11.65)" d="M 3.4219 -9.3125 L 3.4219 -23.9215 L 11.1094 -23.9215 L 11.1094 -21.530900000000003 C 11.1094 -20.237900000000003 11.097681000000001 -18.612900000000003 11.07815 -16.655900000000003 C 11.066431000000001 -14.695000000000002 11.062525 -13.390300000000003 11.062525 -12.734000000000002 C 11.062525 -10.804300000000001 11.1094 -9.421500000000002 11.203145000000001 -8.577800000000002 C 11.304705 -7.734050000000002 11.484395000000001 -7.116900000000001 11.734395000000001 -6.734000000000002 C 12.046895000000001 -6.234000000000002 12.453145000000001 -5.847280000000001 12.953195000000001 -5.577800000000002 C 13.461005 -5.304360000000002 14.046995 -5.171550000000002 14.703195000000001 -5.171550000000002 C 16.296995000000003 -5.171550000000002 17.546995000000003 -5.7809300000000015 18.453195 -6.999650000000002 C 19.367255 -8.226250000000002 19.828195 -9.929350000000001 19.828195 -12.109050000000002 L 19.828195 -23.92105 L 27.468795 -23.92105 L 27.468795 0.0009499999999995623 L 19.828195 0.0009499999999995623 L 19.828195 -3.4521500000000005 C 18.671995000000003 -2.0654500000000002 17.445395 -1.0380500000000006 16.156295 -0.37405000000000044 C 14.875095 0.29000999999999955 13.457095 0.6259499999999996 11.906295 0.6259499999999996 C 9.132895 0.6259499999999996 7.0234950000000005 -0.2217100000000004 5.578195 -1.9209500000000004 C 4.140695 -3.6162500000000004 3.421995 -6.08115 3.421995 -9.31155 z" stroke-linecap="round" />
</g>
		<g transform="matrix(1.33 0 0 1.33 144.14 391.97)"  >
<path style="stroke: none; stroke-width: 1; stroke-dasharray: none; stroke-linecap: butt; stroke-dashoffset: 0; stroke-linejoin: miter; stroke-miterlimit: 4; fill: rgb(0,0,0); fill-rule: nonzero; opacity: 1;" vector-effect="non-scaling-stroke"  transform=" translate(-14.8, 16.3)" d="M 19.953 -20.422 L 19.953 -33.234 L 27.6405 -33.234 L 27.6405 0 L 19.953 0 L 19.953 -3.4531 C 18.8983 -2.0469 17.7382 -1.0156 16.4686 -0.3593000000000002 C 15.195199999999998 0.2969499999999998 13.726399999999998 0.6250799999999999 12.062399999999998 0.6250799999999999 C 9.113199999999999 0.6250799999999999 6.691299999999998 -0.5468200000000001 4.796799999999998 -2.8905200000000004 C 2.910099999999998 -5.23432 1.9686999999999983 -8.24992 1.9686999999999983 -11.937420000000001 C 1.9686999999999983 -15.624920000000003 2.910109999999998 -18.640520000000002 4.796799999999998 -20.984320000000004 C 6.691299999999998 -23.328120000000006 9.113199999999999 -24.499920000000003 12.062399999999998 -24.499920000000003 C 13.718599999999999 -24.499920000000003 15.179599999999999 -24.163980000000002 16.453 -23.499920000000003 C 17.734199999999998 -22.843670000000003 18.8983 -21.816320000000005 19.953 -20.421820000000004 z M 14.906099999999999 -4.938000000000001 C 16.5506 -4.938000000000001 17.8006 -5.535660000000001 18.6561 -6.7349000000000006 C 19.519379999999998 -7.930200000000001 19.953 -9.6646 19.953 -11.938 C 19.953 -14.2192 19.51941 -15.9575 18.6561 -17.1568 C 17.800629999999998 -18.3521 16.5506 -18.9537 14.906099999999999 -18.9537 C 13.281099999999999 -18.9537 12.034999999999998 -18.352140000000002 11.171699999999998 -17.1568 C 10.316229999999997 -15.957600000000001 9.890499999999998 -14.2193 9.890499999999998 -11.938 C 9.890499999999998 -9.6646 10.316279999999997 -7.930200000000001 11.171699999999998 -6.7349000000000006 C 12.034979999999997 -5.5357 13.281099999999999 -4.938000000000001 14.906099999999999 -4.938000000000001 z" stroke-linecap="round" />
</g>
		<g transform="matrix(1.33 0 0 1.33 176.16 391.55)"  >
<path style="stroke: none; stroke-width: 1; stroke-dasharray: none; stroke-linecap: butt; stroke-dashoffset: 0; stroke-linejoin: miter; stroke-miterlimit: 4; fill: rgb(0,0,0); fill-rule: nonzero; opacity: 1;" vector-effect="non-scaling-stroke"  transform=" translate(-7.5, 16.62)" d="M 3.6719 -23.922 L 11.3281 -23.922 L 11.3281 0 L 3.671899999999999 0 z M 3.6719 -33.2345 L 11.3281 -33.2345 L 11.3281 -27.000099999999996 L 3.671899999999999 -27.000099999999996 z" stroke-linecap="round" />
</g>
		<g transform="matrix(1.33 0 0 1.33 206.18 397.79)"  >
<path style="stroke: none; stroke-width: 1; stroke-dasharray: none; stroke-linecap: butt; stroke-dashoffset: 0; stroke-linejoin: miter; stroke-miterlimit: 4; fill: rgb(0,0,0); fill-rule: nonzero; opacity: 1;" vector-effect="non-scaling-stroke"  transform=" translate(-15.02, 11.94)" d="M 15.062 -19.031 C 13.3628 -19.031 12.0659 -18.421619999999997 11.171399999999998 -17.2029 C 10.284679999999998 -15.9841 9.8433 -14.2263 9.8433 -11.9373 C 9.8433 -9.644300000000001 10.284709999999999 -7.8904000000000005 11.171399999999998 -6.6717 C 12.065929999999998 -5.4529000000000005 13.362799999999998 -4.8436 15.061999999999998 -4.8436 C 16.7261 -4.8436 17.999499999999998 -5.45298 18.874499999999998 -6.6717 C 19.757309999999997 -7.8905 20.202599999999997 -9.644400000000001 20.202599999999997 -11.9373 C 20.202599999999997 -14.2264 19.757289999999998 -15.984200000000001 18.874499999999998 -17.2029 C 17.999499999999998 -18.4217 16.7261 -19.031 15.061999999999998 -19.031 z M 15.062 -24.4998 C 19.1753 -24.4998 22.3901 -23.3904 24.702599999999997 -21.1717 C 27.015099999999993 -18.953000000000003 28.1714 -15.8748 28.1714 -11.9373 C 28.1714 -8.0076 27.0152 -4.929500000000001 24.702599999999997 -2.7028999999999996 C 22.390099999999997 -0.48409999999999975 19.175299999999996 0.6252000000000004 15.061999999999998 0.6252000000000004 C 10.925299999999996 0.6252000000000004 7.690899999999997 -0.4841999999999995 5.358899999999998 -2.7028999999999996 C 3.0346999999999986 -4.929499999999999 1.8744999999999985 -8.0076 1.8744999999999985 -11.9373 C 1.8744999999999985 -15.8748 3.034699999999998 -18.9529 5.358899999999998 -21.1717 C 7.690899999999998 -23.390500000000003 10.925299999999998 -24.4998 15.061999999999998 -24.4998 z" stroke-linecap="round" />
</g>
		<g transform="matrix(1.33 0 0 1.33 266.45 392.48)"  >
<path style="stroke: none; stroke-width: 1; stroke-dasharray: none; stroke-linecap: butt; stroke-dashoffset: 0; stroke-linejoin: miter; stroke-miterlimit: 4; fill: rgb(0,0,0); fill-rule: nonzero; opacity: 1;" vector-effect="non-scaling-stroke"  transform=" translate(-14.94, 15.92)" d="M 20.375 -17.203 C 22.5312 -16.6405 24.1641 -15.6718 25.2812 -14.2968 C 26.394499999999997 -12.9218 26.9531 -11.175699999999999 26.9531 -9.0624 C 26.9531 -5.8944 25.7422 -3.4882 23.3281 -1.8436000000000003 C 20.9101 -0.19520000000000026 17.378899999999998 0.6251999999999995 12.7341 0.6251999999999995 C 11.0974 0.6251999999999995 9.4568 0.4884799999999995 7.8122 0.21894999999999953 C 6.1638 -0.03886000000000045 4.5349 -0.43730000000000047 2.9215999999999998 -0.9685500000000005 L 2.9215999999999998 -7.31235 C 4.460699999999999 -6.5389100000000004 5.9879999999999995 -5.95685 7.4997 -5.56235 C 9.0192 -5.17563 10.5153 -4.98423 11.9841 -4.98423 C 14.1599 -4.98423 15.8279 -5.35923 16.984099999999998 -6.10923 C 18.1482 -6.85923 18.734099999999998 -7.94123 18.734099999999998 -9.35923 C 18.734099999999998 -10.80453 18.140349999999998 -11.906130000000001 16.9529 -12.656130000000001 C 15.765450000000001 -13.406130000000001 14.0076 -13.781130000000001 11.6873 -13.781130000000001 L 8.3904 -13.781130000000001 L 8.3904 -19.078030000000002 L 11.8592 -19.078030000000002 C 13.9217 -19.078030000000002 15.4569 -19.39834 16.4686 -20.046780000000002 C 17.476399999999998 -20.69131 17.984199999999998 -21.675680000000003 17.984199999999998 -22.99988 C 17.984199999999998 -24.226480000000002 17.492009999999997 -25.17568 16.515399999999996 -25.84368 C 15.534929999999996 -26.51946 14.144299999999996 -26.85928 12.343499999999995 -26.85928 C 11.019299999999996 -26.85928 9.679399999999996 -26.70694 8.327899999999996 -26.40616 C 6.972399999999996 -26.10147 5.628699999999997 -25.66007 4.296699999999996 -25.07806 L 4.296699999999996 -31.10926 C 5.921699999999996 -31.55457 7.531099999999996 -31.89442 9.124799999999997 -32.12486 C 10.718599999999997 -32.35142 12.284999999999997 -32.46861 13.827899999999996 -32.46861 C 17.960699999999996 -32.46861 21.062299999999997 -31.78502 23.124799999999997 -30.421709999999997 C 25.187299999999997 -29.066209999999998 26.218599999999995 -27.019409999999997 26.218599999999995 -24.281109999999998 C 26.218599999999995 -22.413909999999998 25.722509999999996 -20.89051 24.734199999999994 -19.70301 C 23.753729999999994 -18.51551 22.300599999999996 -17.67961 20.374799999999993 -17.20301 z" stroke-linecap="round" />
</g>
		<g transform="matrix(1.33 0 0 1.33 307.67 392.51)"  >
<path style="stroke: none; stroke-width: 1; stroke-dasharray: none; stroke-linecap: butt; stroke-dashoffset: 0; stroke-linejoin: miter; stroke-miterlimit: 4; fill: rgb(0,0,0); fill-rule: nonzero; opacity: 1;" vector-effect="non-scaling-stroke"  transform=" translate(-15.41, 15.9)" d="M 15.828 -15.75 C 14.3905 -15.75 13.3124 -15.28125 12.593599999999999 -14.3438 C 11.874849999999999 -13.414109999999999 11.5155 -12.015699999999999 11.5155 -10.140699999999999 C 11.5155 -8.273499999999999 11.87488 -6.875099999999999 12.593599999999999 -5.937599999999999 C 13.312349999999999 -5.007909999999999 14.3905 -4.546999999999999 15.828 -4.546999999999999 C 17.285 -4.546999999999999 18.3749 -5.007939999999999 19.0936 -5.937599999999999 C 19.81235 -6.875099999999999 20.171699999999998 -8.273499999999999 20.171699999999998 -10.140699999999999 C 20.171699999999998 -12.015699999999999 19.812319999999996 -13.4141 19.0936 -14.343799999999998 C 18.37485 -15.281299999999998 17.285 -15.749999999999998 15.828 -15.749999999999998 z M 26 -31.061999999999998 L 26 -25.1714 C 24.6445 -25.804209999999998 23.3672 -26.273 22.1719 -26.577599999999997 C 20.9727 -26.890099999999997 19.8047 -27.046349999999997 18.6719 -27.046349999999997 C 16.2227 -27.046349999999997 14.3125 -26.362759999999998 12.9375 -24.999449999999996 C 11.5703 -23.643949999999997 10.7734 -21.628349999999998 10.5469 -18.952549999999995 C 11.49221 -19.647859999999994 12.5157 -20.171349999999997 13.6094 -20.515049999999995 C 14.7032 -20.866609999999994 15.8985 -21.046299999999995 17.203200000000002 -21.046299999999995 C 20.461000000000002 -21.046299999999995 23.0938 -20.085359999999994 25.0938 -18.171299999999995 C 27.0938 -16.265099999999997 28.0938 -13.768999999999995 28.0938 -10.686899999999994 C 28.0938 -7.257199999999994 26.972700000000003 -4.514999999999994 24.7344 -2.4524999999999935 C 22.5039 -0.3977999999999935 19.5078 0.6256000000000066 15.75 0.6256000000000066 C 11.601600000000001 0.6256000000000066 8.3945 -0.7727999999999935 6.125 -3.5774999999999935 C 3.8516 -6.378299999999994 2.7188 -10.346999999999994 2.7188 -15.483499999999994 C 2.7188 -20.752999999999993 4.0469 -24.893699999999995 6.7032 -27.905499999999996 C 9.3594 -30.913299999999996 13.0001 -32.421099999999996 17.6252 -32.421099999999996 C 19.094 -32.421099999999996 20.5158 -32.303909999999995 21.8908 -32.077349999999996 C 23.2736 -31.858599999999996 24.6447 -31.518759999999997 26.0002 -31.061749999999996 z" stroke-linecap="round" />
</g>
		<g transform="matrix(1.33 0 0 1.33 348.22 392.86)"  >
<path style="stroke: none; stroke-width: 1; stroke-dasharray: none; stroke-linecap: butt; stroke-dashoffset: 0; stroke-linejoin: miter; stroke-miterlimit: 4; fill: rgb(0,0,0); fill-rule: nonzero; opacity: 1;" vector-effect="non-scaling-stroke"  transform=" translate(-15.38, 15.63)" d="M 4.6406 -31.891 L 25.078599999999998 -31.891 L 25.078599999999998 -25.844099999999997 L 11.187599999999998 -25.844099999999997 L 11.187599999999998 -20.906599999999997 C 11.820409999999997 -21.082379999999997 12.453199999999999 -21.219099999999997 13.078199999999999 -21.312849999999997 C 13.711009999999998 -21.406599999999997 14.3751 -21.453469999999996 15.0626 -21.453469999999996 C 18.9454 -21.453469999999996 21.9728 -20.476909999999997 24.1407 -18.531569999999995 C 26.3048 -16.582369999999994 27.3907 -13.875369999999995 27.3907 -10.406569999999995 C 27.3907 -6.957369999999996 26.2071 -4.254269999999995 23.843799999999998 -2.297169999999994 C 21.4883 -0.3479699999999941 18.218799999999998 0.6247300000000058 14.031299999999998 0.6247300000000058 C 12.226599999999998 0.6247300000000058 10.437499999999998 0.44504000000000576 8.656299999999998 0.09348000000000578 C 6.882899999999998 -0.2502699999999942 5.125099999999998 -0.7815199999999942 3.375099999999998 -1.5003199999999943 L 3.375099999999998 -7.969119999999994 C 5.113399999999998 -6.969119999999994 6.757899999999998 -6.219119999999994 8.312599999999998 -5.719119999999994 C 9.875099999999998 -5.226929999999994 11.347799999999998 -4.984739999999994 12.734499999999997 -4.984739999999994 C 14.722799999999998 -4.984739999999994 16.289199999999997 -5.469119999999994 17.437599999999996 -6.437839999999994 C 18.582099999999997 -7.414399999999994 19.156399999999998 -8.738639999999995 19.156399999999998 -10.406639999999994 C 19.156399999999998 -12.082439999999995 18.582179999999997 -13.406639999999994 17.437599999999996 -14.375439999999994 C 16.289199999999997 -15.344189999999994 14.722799999999996 -15.828539999999993 12.734499999999997 -15.828539999999993 C 11.546999999999997 -15.828539999999993 10.281399999999998 -15.672289999999993 8.937599999999996 -15.359789999999993 C 7.601699999999996 -15.055099999999992 6.171999999999996 -14.586349999999992 4.640699999999996 -13.953589999999993 z" stroke-linecap="round" />
</g>
</g>
</g>
</svg>